<?xml version="1.0" encoding="UTF-8"?>
<svg width="80px" height="80px" viewBox="0 0 80 80" version="1.1" xmlns="http://www.w3.org/2000/svg" xmlns:xlink="http://www.w3.org/1999/xlink">
    <!-- Generator: Sketch 61.2 (89653) - https://sketch.com -->
    <title>1台式机</title>
    <desc>Created with Sketch.</desc>
    <g id="电脑" stroke="none" stroke-width="1" fill="none" fill-rule="evenodd">
        <g id="1-9电脑合集" transform="translate(-669.000000, -619.000000)">
            <g id="编组-5" transform="translate(369.000000, 618.000000)">
                <g id="1台式机" transform="translate(300.000000, 1.000000)">
                    <rect id="矩形" x="0" y="0" width="80" height="80"></rect>
                    <g id="编组-11" transform="translate(2.000000, 11.000000)">
                        <polygon id="Fill-5" fill="#000000" fill-rule="nonzero" points="40 57 43 57 43 44 40 44"></polygon>
                        <path d="M14,44.7289736 C14,46.8993869 14,50.1550068 14,54.4958333 C14,55.3255 13.5041667,56 12.8916667,56 L1.10833333,56 C0.495833334,56 0,55.3255 0,54.4958333 L0,19.5041667 C0,18.6729167 0.495833334,18 1.10833333,18 C4.56473106,18 7.15702935,18 8.88522821,18" id="路径" stroke="#000000" stroke-width="2"></path>
                        <path d="M7.5,23.5 C7.5,24.328 6.82899995,25 6,25 C5.17099999,25 4.5,24.328 4.5,23.5 C4.5,22.671 5.17099999,22 6,22 C6.82899995,22 7.5,22.671 7.5,23.5 Z" id="Fill-8" fill="#000000" fill-rule="nonzero"></path>
                        <line x1="31" y1="56.5" x2="53" y2="56.5" id="Stroke-3" stroke="#000000" stroke-width="2" stroke-linecap="round"></line>
                        <path d="M10.7361666,0 L73.262,0 C74.2226667,0 75,0.795 75,1.775625 L75,43.224375 C75,44.205 74.2226667,45 73.262,45 L10.7361666,45 C9.77733328,45 9,44.205 9,43.224375 L9,1.775625 C9,0.795 9.77733328,0 10.7361666,0 Z" id="Stroke-1" stroke="#000000" stroke-width="2"></path>
                    </g>
                </g>
            </g>
        </g>
    </g>
</svg>