<?xml version="1.0" encoding="UTF-8"?>
<svg width="80px" height="80px" viewBox="0 0 80 80" version="1.1" xmlns="http://www.w3.org/2000/svg" xmlns:xlink="http://www.w3.org/1999/xlink">
    <!-- Generator: Sketch 61.2 (89653) - https://sketch.com -->
    <title>编组 8</title>
    <desc>Created with Sketch.</desc>
    <g id="电脑" stroke="none" stroke-width="1" fill="none" fill-rule="evenodd">
        <g id="1-9电脑合集" transform="translate(-1437.000000, -624.000000)">
            <g id="编组-8" transform="translate(1437.000000, 624.000000)">
                <g id="编组-3">
                    <rect id="矩形备份-10" x="0" y="0.480335648" width="80" height="78.6885246"></rect>
                    <path d="M18.7658694,62 L9,62 C8.44771525,62 8,61.5522847 8,61 L8,20 C8,19.4477153 8.44771525,19 9,19 L72,19 C72.5522847,19 73,19.4477153 73,20 L73,61 C73,61.5522847 72.5522847,62 72,62 L59.6599609,62" id="路径" stroke="#000000" stroke-width="2"></path>
                    <rect id="矩形" stroke="#000000" stroke-width="2" x="11" y="5.25082745" width="59" height="9" rx="1"></rect>
                    <g id="编组-5" transform="translate(18.000000, 26.054106)"></g>
                    <g id="编组-6" transform="translate(19.000000, 27.213115)" stroke="#000000" stroke-width="2">
                        <path d="M1,0 L43,0 C43.5522847,-1.01453063e-16 44,0.44771525 44,1 L44,25.0819672 L44,25.0819672 L44,31.0510971 C44,31.5970065 43.5621883,32.0420367 43.0163519,32.0509634 L33.1520448,32.2122853 C32.6102149,32.2211464 32.1740346,32.659972 32.1684498,33.2018455 L32.059586,43.7644044 C32.0539356,44.3126395 31.6079034,44.7540984 31.0596392,44.7540984 L1,44.7540984 C0.44771525,44.7540984 6.76353751e-17,44.3063831 0,43.7540984 L0,1 C-6.76353751e-17,0.44771525 0.44771525,1.01453063e-16 1,0 Z" id="矩形"></path>
                        <line x1="31.6829113" y1="44.4824877" x2="43.8188416" y2="31.6250481" id="直线" stroke-linecap="round"></line>
                    </g>
                </g>
            </g>
        </g>
    </g>
</svg>